<svg width="40" height="41" viewBox="0 0 40 41" fill="none" xmlns="http://www.w3.org/2000/svg">
<path d="M38.362 8.36635H32.0683C32.4729 7.599 32.6977 6.73573 32.6977 5.77655C32.6527 2.75512 30.3601 0.309204 27.5729 0.309204C23.7068 0.309204 21.3692 3.42655 20.0655 6.01635C18.7618 3.42655 16.4242 0.309204 12.5581 0.309204C9.72594 0.309204 7.43326 2.75512 7.43326 5.77655C7.43326 6.73573 7.65803 7.599 8.06262 8.36635H1.67908C0.914853 8.36635 0.330444 8.98982 0.330444 9.80512V19.2051C0.330444 20.0204 0.914853 20.6439 1.67908 20.6439H2.8479V39.2521C2.8479 40.0674 3.43231 40.6908 4.19653 40.6908H35.8445C36.6087 40.6908 37.1931 40.0674 37.1931 39.2521V20.6439H38.317C39.0812 20.6439 39.6656 20.0204 39.6656 19.2051V9.80512C39.7106 8.98982 39.0812 8.36635 38.362 8.36635ZM37.0133 17.7663H21.3692V11.2439H27.5729H36.9684L37.0133 17.7663ZM27.5729 3.18675C28.8766 3.18675 30.0004 4.38573 30.0004 5.77655C30.0004 7.21533 28.9665 8.36635 27.6178 8.36635H21.9536C22.8077 6.3041 24.6059 3.18675 27.5729 3.18675ZM10.0856 5.77655C10.0856 4.38573 11.2094 3.18675 12.5131 3.18675C15.4801 3.18675 17.2333 6.3041 18.0875 8.36635H12.4682C11.1645 8.36635 10.0856 7.21533 10.0856 5.77655ZM3.02771 11.2439H12.4682H18.6719V17.7663H3.02771V11.2439ZM5.54517 20.6439H18.6719V37.8133H5.54517V20.6439ZM34.4959 37.8133H21.3692V20.6439H34.4959V37.8133Z" fill="url(#paint0_linear)"/>
<defs>
<linearGradient id="paint0_linear" x1="20.0205" y1="0.309204" x2="20.0205" y2="40.6908" gradientUnits="userSpaceOnUse">
<stop stop-color="#00EFD1"/>
<stop offset="1" stop-color="#00ACEA"/>
</linearGradient>
</defs>
</svg>
